<?xml version="1.0" encoding="utf-8"?>
<!-- Generator: Adobe Illustrator 23.1.1, SVG Export Plug-In . SVG Version: 6.00 Build 0)  -->
<svg version="1.1" id="outline" xmlns="http://www.w3.org/2000/svg" xmlns:xlink="http://www.w3.org/1999/xlink" x="0px" y="0px"
	 viewBox="0 0 113.6 37" style="enable-background:new 0 0 113.6 37;" xml:space="preserve">
<g>
	<path d="M41,6.7V1h-1.8v6.5c0,0.5,0,1-0.1,1.3c-0.2,0.9-0.9,1.4-2.1,1.4c-1.1,0-1.8-0.4-2-1.3c-0.1-0.3-0.1-0.7-0.1-1.3V1h-2.1v5.9
		c0,1.4,0.1,2.4,0.6,3.1c0.6,0.9,1.7,1.5,3.6,1.5c2.1,0,3.1-0.9,3.6-1.8C40.8,9.2,41,8.4,41,6.7L41,6.7z"/>
	<path d="M49.3,11.4V6.8c0-0.3,0-0.9-0.1-1.5c-0.2-0.8-0.8-1.7-2.4-1.7c-1.6,0-2.2,0.9-2.2,0.9V3.8h-2v7.5h2.1V5.3
		c0,0,0.5-0.2,1.1-0.2c0.8,0,1.3,0.3,1.4,1c0.1,0.3,0.1,0.7,0.1,1.1v4.3H49.3z M53.3,1.7c0-0.6-0.5-1.1-1.2-1.1
		c-0.8,0-1.2,0.4-1.2,1.1c0,0.6,0.5,1.1,1.2,1.1C52.8,2.8,53.3,2.3,53.3,1.7L53.3,1.7z M53.1,11.4V3.8H51v7.5H53.1z M61.4,3.8h-1.8
		l-1.5,4.9c-0.1,0.4-0.3,0.9-0.3,0.9s-0.1-0.3-0.2-0.9l-1.4-4.9H54l2.7,7.5h2L61.4,3.8z M68.5,7.8c0,0,0-0.1,0-0.1
		c0-0.8,0-1.8-0.5-2.6c-0.5-0.8-1.2-1.4-2.7-1.4c-3.1,0-3.6,2.5-3.6,3.9c0,3,1.8,3.9,3.9,3.9c1.8,0,2.6-0.4,2.6-0.4l-0.4-1.1
		c0,0-0.6,0.3-1.6,0.3c-1.4,0-2.4-0.9-2.4-2.4c0,0,0-0.1,0-0.2L68.5,7.8L68.5,7.8z M66.4,6.7h-2.6c0-0.1,0-0.5,0.1-0.9
		c0.2-0.7,0.5-1.1,1.2-1.1c0.9,0,1.3,0.6,1.3,1.7V6.7z M74.5,3.9c-0.2-0.1-0.5-0.2-1-0.2c-1.3,0-1.8,1.1-1.8,1.1v-1h-2v7.5h2.1V5.5
		c0,0,0.4-0.3,1.1-0.3c0.7,0,1.1,0.3,1.2,0.4L74.5,3.9z"/>
	<path d="M80.1,9.1c0-1-0.5-1.6-1.4-2.1l-1.1-0.5c-0.6-0.3-0.9-0.5-0.9-0.9c0-0.6,0.5-0.7,1.2-0.7c0.9,0,1.6,0.4,1.6,0.4L80,4.1
		c0,0-0.8-0.4-2.3-0.4c-1.7,0-2.7,0.7-2.7,2.2c0,1.1,0.5,1.6,1.5,2.2l1.1,0.6C78,8.9,78.3,9,78.3,9.5c0,0.6-0.4,0.8-1.2,0.8
		c-1.2,0-1.9-0.4-1.9-0.4l-0.4,1.2c0,0,0.8,0.4,2.5,0.4C78.8,11.5,80.1,10.9,80.1,9.1L80.1,9.1z M83.7,1.7c0-0.6-0.5-1.1-1.2-1.1
		c-0.8,0-1.2,0.4-1.2,1.1c0,0.6,0.5,1.1,1.2,1.1C83.2,2.8,83.7,2.3,83.7,1.7L83.7,1.7z M83.5,11.4V3.8h-2.1v7.5H83.5z M90,11.1
		L89.6,10c0,0-0.4,0.2-0.9,0.2c-1,0-1.1-0.6-1.1-1.4V5h2.2V3.9h-2.2V2.1h-1.3l0,0.1C86.2,3,85.7,3.7,84.9,4L84.7,4V5h0.9v3.7
		c0,0.6,0,1.2,0.2,1.5c0.3,0.9,1.1,1.2,2.3,1.2C89.1,11.5,89.8,11.2,90,11.1L90,11.1z"/>
	<path d="M97.8,3.8h-1.8l-1.4,4.9c-0.1,0.4-0.2,0.9-0.2,0.9s0-0.3-0.2-0.9l-1.5-4.9h-2.2l3,7.9l-0.2,0.7c-0.2,0.7-0.6,1-1.2,1
		c-0.4,0-0.8-0.2-0.8-0.2l-0.2,1.2c0,0,0.4,0.2,1.3,0.2c1.2,0,2-0.5,2.5-2L97.8,3.8z"/>
	<path d="M107.9,7.5c0-2.3-1.3-3.8-3.6-3.8c-2.8,0-3.8,2-3.8,4.1c0,2.4,1.3,3.8,3.7,3.8C106.9,11.6,107.9,9.6,107.9,7.5L107.9,7.5z
		 M105.8,7.6c0,1.8-0.4,2.7-1.6,2.7c-1.2,0-1.6-1-1.6-2.8c0-1.8,0.4-2.7,1.6-2.7C105.4,4.9,105.8,5.9,105.8,7.6L105.8,7.6z
		 M113.6,0.2c0,0-0.5-0.2-1.5-0.2c-1.4,0-2.2,0.6-2.5,1.6c-0.2,0.5-0.2,1.4-0.2,1.9v0.4h-0.9V5h0.9v6.4h2V5h1.5V3.9h-1.5V2.8
		c0-0.6,0-0.9,0.2-1.2c0.2-0.3,0.4-0.4,0.9-0.4c0.5,0,0.8,0.2,0.8,0.2L113.6,0.2z"/>
	<path d="M85,15.2c-1.2,0-2,0.7-2,1.8c0,1,0.8,1.7,1.9,1.7c1.2,0,2-0.7,2-1.8C87,15.9,86.2,15.2,85,15.2z"/>
	<path d="M51.1,20.2c-5.1,0-5.6,4.2-5.6,6c0,4.8,3.3,5.9,6.1,5.9c2.5,0,3.8-0.5,4.1-0.6c-0.1-0.2-0.5-1.5-0.6-1.7
		c-0.3,0.1-1.2,0.5-2.5,0.5c-2.6,0-3.7-1.7-3.7-3.3v-0.3c0,0,6.9,0,7.2,0c0,0,0-0.1,0-0.1c0-1.3-0.1-2.9-0.7-4
		C54.7,20.9,53.3,20.2,51.1,20.2z M52.8,24.9h-3.9v-0.1c0-0.3,0-0.8,0.1-1.4c0.2-1.2,0.8-1.8,1.9-1.8c1.3,0,1.9,0.8,1.9,2.5
		C52.8,24.1,52.8,24.9,52.8,24.9z"/>
	<path d="M40.5,24.9c0.1,0,3.2-0.9,3.2-4.6c0-3-2.5-3.9-3.3-4c-0.9-0.2-2.3-0.3-4.2-0.3c-1.6,0-3,0.1-3.4,0.1c0,0.2,0,15.5,0,15.8
		c0.2,0,3.1,0,3.3,0c0-0.3,0-6.4,0-6.4h1c0,0,4.4,6.2,4.5,6.4c0.1,0,3.5,0,4,0c-0.3-0.4-5.2-6.8-5.2-6.8L40.5,24.9z M38.6,23.8
		c-0.4,0.1-0.6,0.1-1.4,0.1l-1.1,0v-6.1l0.1,0c0,0,0.3,0,1,0c2.1,0,3.1,1,3.1,3.1C40.3,22.7,39.4,23.6,38.6,23.8z"/>
	<path d="M62.8,20.1c-2.4,0-3.8,0.5-4.2,0.6c0.1,0.2,0.5,1.5,0.6,1.8c0.3-0.1,1.3-0.5,2.7-0.5c0.7,0,1.7,0.1,2,1
		c0.1,0.3,0.2,0.7,0.2,1.3V25l0,0.1l-1.7-0.1c-1.3,0-2.7,0.1-3.7,0.8c-0.9,0.6-1.3,1.5-1.3,2.8c0,2.1,1.4,3.4,3.5,3.4
		c2.1,0,2.9-1.2,2.9-1.2l0.2-0.4c0,0,0,1.1,0,1.4c0.2,0,2.9,0,3.2,0c0-0.3,0-7,0-7c0-1,0-2-0.3-2.6C66.5,20.8,65.1,20.1,62.8,20.1z
		 M64.1,30L64.1,30c-0.1,0.1-0.5,0.3-1.3,0.3c-0.7,0-2-0.2-2-1.9c0-0.3,0-1,0.5-1.5c0.4-0.4,0.9-0.6,1.7-0.6l1,0h0.1L64.1,30
		L64.1,30z"/>
	<path d="M86.7,20.4c-0.2,0-3.2,0-3.4,0c0,0.3,0,11.2,0,11.4c0.2,0,3.2,0,3.4,0C86.7,31.5,86.7,20.6,86.7,20.4z"/>
	<path d="M74.6,20.2c-3.2,0-5.3,2.5-5.3,6.1c0,3.6,1.7,5.7,4.6,5.7c2.3,0,3.1-1.3,3.1-1.3l0.3-0.4c0,0,0,1.3,0,1.5
		c0.2,0,3.1,0,3.3,0c0-0.3,0-17.1,0-17.4c-0.2,0-3.2,0-3.4,0c0,0.3,0,6.1,0,6.1v0.3l-0.2-0.2C76.9,20.7,76.3,20.2,74.6,20.2z
		 M77.2,22v7.6l-0.1,0c0,0-0.6,0.3-1.5,0.3c-1.8,0-2.8-1.4-2.8-3.9c0-2.8,1.1-4.2,3.2-4.2C76.7,21.9,77.1,22,77.2,22L77.2,22z"/>
	<path d="M96.3,20.1c-2.4,0-3.3,1.4-3.3,1.4l-0.2,0.4c0,0,0-1.3,0-1.5c-0.2,0-3.1,0-3.3,0c0,0.3,0,11.2,0,11.4c0.2,0,3.2,0,3.4,0
		c0-0.3,0-9.3,0-9.3l0.1,0c0,0,0.6-0.3,1.6-0.3c1.1,0,1.8,0.5,2.1,1.4c0.1,0.4,0.1,1.1,0.1,1.4c0,0,0,6.5,0,6.8c0.2,0,3.2,0,3.4,0
		c0-0.3,0-6.9,0-6.9c0-0.5,0-1.4-0.2-2.2C99.7,21.9,99,20.1,96.3,20.1z"/>
	<path d="M106.7,20.2c-3.3,0-4.8,1.9-4.8,3.9c0,3,2.6,3.4,2.7,3.4l0.5,0.1l-0.5,0.2c-0.1,0-1.7,0.7-1.7,2.4c0,1.2,0.9,1.6,0.9,1.6
		l0.5,0.2l-0.5,0c-0.1,0-2.4,0.3-2.4,2.3c0,2.4,3,2.7,4.8,2.7c1.4,0,2.6-0.2,3.6-0.5c2.9-1,3.3-3,3.3-4c0-2.5-1.9-2.9-3.6-2.9
		l-1.6,0l-0.9,0c-0.5,0-1.3,0-1.3-1c0-0.6,0.3-0.9,0.3-0.9l0.1,0l1.1,0.1c3,0,4.7-1.3,4.7-3.6c0-1.2-0.7-1.8-0.7-1.8l-0.2-0.2
		c0,0,2.1,0,2.3,0c0-0.2,0-1.5,0-1.7c-0.3,0-4.5,0-4.5,0C108.3,20.3,107.6,20.2,106.7,20.2z M107.7,32.1c1.1,0,1.8,0,2.2,0.4
		c0.2,0.2,0.3,0.4,0.3,0.8c0,0.9-0.6,2-3.3,2c-1.3,0-2.8-0.2-2.8-1.7c0-1,0.9-1.4,0.9-1.5l0,0L107.7,32.1L107.7,32.1z M107.8,26.2
		L107.8,26.2c-0.3,0.2-0.6,0.2-1,0.2c-1.2,0-1.8-0.9-1.8-2.4c0-0.8,0.1-1.7,0.8-2.2c0.3-0.2,0.6-0.3,1-0.3c1.2,0,1.8,0.9,1.8,2.4
		C108.7,24.7,108.6,25.7,107.8,26.2z"/>
	<path d="M26,19.8L25.9,2c0-0.5-0.5-1-1-1.1c-0.1,0-2.7-0.3-11.8-0.3h-0.1C4.7,0.6,1.7,0.8,1.1,0.9C0.6,1,0.1,1.5,0.1,2
		C0.1,2.1,0,19.8,0,19.8c0,0.1-0.1,1.2,0.4,2.8c0.5,1.8,1.7,4,4.5,6.2c4.6,3.6,7.8,5,8,5.1c0.1,0,0.1,0,0.1,0c0,0,0.1,0,0.1,0
		c0.1-0.1,3.3-1.5,7.9-5.1c2.8-2.2,4-4.4,4.5-6.2C26.1,21,26,19.9,26,19.8z M0.8,2.1c0-0.2,0.2-0.5,0.5-0.5
		c0.6-0.1,3.5-0.3,11.7-0.3h0.1c9,0,11.6,0.3,11.6,0.3c0.4,0.1,0.6,0.4,0.6,0.5l0.1,13c-1.2-0.1-4.6-0.2-12.2-0.2
		c-7.8,0-11.2,0.1-12.4,0.2C0.7,9.9,0.8,2.1,0.8,2.1z M23.1,25.7c-0.1-0.2-0.4-0.4-0.7-0.4c-0.4,0-0.6,0.2-0.7,0.6
		c-0.1-0.3-0.4-0.6-0.7-0.6c-0.4,0-0.6,0.2-0.7,0.6c-0.1-0.3-0.4-0.6-0.7-0.6c-0.4,0-0.6,0.2-0.7,0.6c-0.1-0.3-0.4-0.6-0.7-0.6
		c-0.4,0-0.6,0.2-0.7,0.6c-0.1-0.3-0.4-0.6-0.7-0.6c-0.4,0-0.8,0.4-0.8,0.8c0,0.4,0.2,0.6,0.6,0.7c-0.3,0.1-0.6,0.4-0.6,0.7
		c0,0.4,0.2,0.6,0.6,0.7c-0.3,0.1-0.6,0.4-0.6,0.7c0,0.4,0.2,0.6,0.6,0.7c-0.3,0.1-0.6,0.4-0.6,0.7c0,0.3,0.2,0.6,0.5,0.7
		c-0.2,0.1-0.3,0.2-0.3,0.2c-1.6,1-2.6,1.4-2.9,1.6c-0.3-0.1-1.3-0.6-2.9-1.5c0,0-0.1-0.1-0.4-0.2c0.3-0.1,0.6-0.4,0.6-0.8
		c0-0.4-0.2-0.6-0.6-0.7c0.3-0.1,0.6-0.4,0.6-0.7c0-0.4-0.2-0.6-0.6-0.7c0.3-0.1,0.6-0.4,0.6-0.7c0-0.4-0.2-0.6-0.6-0.7
		c0.3-0.1,0.6-0.4,0.6-0.7c0-0.4-0.4-0.8-0.8-0.8c-0.4,0-0.6,0.2-0.7,0.6c-0.1-0.3-0.4-0.6-0.7-0.6c-0.3,0-0.7,0.2-0.7,0.6
		c-0.1-0.3-0.4-0.6-0.7-0.6c-0.3,0-0.7,0.2-0.7,0.6c-0.1-0.3-0.4-0.6-0.7-0.6c-0.3,0-0.7,0.2-0.7,0.6c-0.1-0.3-0.4-0.6-0.7-0.6
		c-0.3,0-0.5,0.2-0.7,0.4c-1.6-2.1-2.1-4.2-2.2-5.2v0h0c0.3-0.1,0.5-0.3,0.6-0.6c0.1,0.4,0.4,0.6,0.7,0.6s0.7-0.2,0.7-0.6
		c0.1,0.3,0.4,0.6,0.7,0.6c0.3,0,0.7-0.2,0.7-0.6c0.1,0.3,0.4,0.6,0.7,0.6c0.3,0,0.7-0.2,0.7-0.6c0.1,0.3,0.4,0.6,0.7,0.6
		c0.3,0,0.7-0.2,0.7-0.6c0.1,0.3,0.4,0.6,0.7,0.6c0.4,0,0.6-0.2,0.7-0.6c0.1,0.3,0.4,0.6,0.7,0.6c0.4,0,0.8-0.4,0.8-0.8
		c0-0.4-0.2-0.6-0.6-0.7c0.3-0.1,0.6-0.4,0.6-0.7c0-0.4-0.2-0.6-0.6-0.7c0.3-0.1,0.6-0.4,0.6-0.7c0-0.4-0.2-0.7-0.6-0.8
		c0.2-0.1,0.4-0.2,0.5-0.4l0,0c1.3,0,2.3,0,2.7,0c0.4,0,1.5,0,2.9,0l0,0c0.1,0.2,0.3,0.3,0.5,0.4c-0.4,0.1-0.6,0.4-0.6,0.8
		s0.2,0.6,0.6,0.7c-0.3,0.1-0.6,0.4-0.6,0.7c0,0.4,0.2,0.6,0.6,0.7c-0.3,0.1-0.6,0.4-0.6,0.7c0,0.4,0.4,0.8,0.8,0.8
		c0.4,0,0.6-0.2,0.7-0.6c0.1,0.3,0.4,0.6,0.7,0.6c0.4,0,0.6-0.2,0.7-0.6c0.1,0.3,0.4,0.6,0.7,0.6c0.4,0,0.6-0.2,0.7-0.6
		c0.1,0.3,0.4,0.6,0.7,0.6c0.4,0,0.6-0.2,0.7-0.6c0.1,0.3,0.4,0.6,0.7,0.6c0.4,0,0.6-0.2,0.7-0.6c0.1,0.3,0.4,0.6,0.7,0.6
		c0.4,0,0.7-0.2,0.8-0.6c0.1,0.3,0.3,0.5,0.6,0.6l0,0v0C25.1,21.5,24.7,23.6,23.1,25.7z"/>
	<g>
		<path d="M15.6,20.9c-0.1-0.4-0.4-0.8-0.7-1l0,0l0,0c-0.3-0.2-0.8-0.4-1.2-0.3c-0.4-0.3-0.6-1.3-0.7-1.3s-0.2,0.9-0.7,1.3
			c-0.4-0.1-0.9,0.1-1.2,0.3h0c-0.3,0.2-0.6,0.6-0.7,1C10,21.1,9,21,9,21.1c0,0,0.8,0.5,1,1c-0.1,0.2-0.1,0.4-0.1,0.6
			c0,0.2,0,0.4,0.1,0.6v0c0.1,0.4,0.4,0.8,0.8,1c0.1,0.5-0.2,1.4-0.2,1.4c0,0,0.7-0.6,1.3-0.6c0.3,0.3,0.7,0.4,1.2,0.4h0
			c0.4,0,0.9-0.1,1.2-0.4c0.5,0,1.2,0.7,1.3,0.6s-0.4-0.9-0.2-1.4c0.4-0.2,0.6-0.6,0.8-1l0,0c0.1-0.2,0.1-0.4,0.1-0.6
			c0-0.2,0-0.5-0.1-0.6c0.2-0.5,1-1,1-1C16.9,21,16,21.1,15.6,20.9z M15.7,23.3L15.7,23.3c-0.1,0.4-0.3,0.7-0.6,0.8
			c-0.1,0.1-0.3,0.1-0.4,0.1c-0.1,0-0.3-0.1-0.4-0.2c0,0,0,0,0,0c-0.1-0.1-0.2-0.4-0.3-0.5c-0.1-0.1-0.3-0.5-0.5-0.4
			c-0.2,0.2,0.1,0.5,0.2,0.6c0.1,0.1,0.3,0.3,0.4,0.4c0,0,0,0,0,0c0,0.1,0.1,0.3,0.1,0.4c0,0.1-0.1,0.2-0.2,0.3
			c-0.2,0.2-0.6,0.3-1,0.3l0,0c-0.4,0-0.7-0.1-0.9-0.3c-0.1-0.1-0.2-0.2-0.2-0.4c0-0.1,0-0.3,0.1-0.4c0,0,0,0,0,0
			c0.1-0.1,0.3-0.3,0.4-0.4c0.1-0.1,0.4-0.4,0.2-0.6c-0.2-0.2-0.4,0.2-0.5,0.4c-0.1,0.1-0.2,0.4-0.3,0.5c0,0,0,0,0,0
			c-0.1,0.1-0.2,0.1-0.4,0.2c-0.1,0-0.3,0-0.4-0.1c-0.3-0.1-0.5-0.5-0.6-0.8v0c-0.1-0.4-0.1-0.8,0-1c0.1-0.1,0.1-0.2,0.3-0.3
			c0.1,0,0.3-0.1,0.4-0.1c0,0,0.1,0,0.1,0c0.1,0,0.4,0.2,0.5,0.2c0.2,0.1,0.5,0.3,0.6,0c0.1-0.3-0.3-0.3-0.5-0.4
			c-0.1,0-0.4-0.1-0.5-0.1c0,0,0,0-0.1,0c-0.1-0.1-0.2-0.2-0.3-0.3c-0.1-0.1-0.1-0.3,0-0.4c0.1-0.3,0.3-0.6,0.6-0.8h0
			c0.3-0.2,0.7-0.3,1-0.3c0.1,0,0.3,0.1,0.4,0.2c0.1,0.1,0.2,0.2,0.2,0.4c0,0,0,0,0,0.1c0,0.1,0,0.4-0.1,0.5c0,0.2-0.1,0.6,0.2,0.6
			s0.2-0.4,0.2-0.6c0-0.1-0.1-0.4-0.1-0.5c0,0,0,0,0-0.1c0-0.1,0.1-0.3,0.2-0.4c0.1-0.1,0.2-0.1,0.4-0.2c0.3,0,0.7,0.1,1,0.3l0,0
			c0.3,0.2,0.5,0.5,0.6,0.8c0,0.1,0,0.3,0,0.4c-0.1,0.1-0.2,0.2-0.3,0.3c0,0,0,0,0,0c-0.1,0-0.4,0.1-0.5,0.1c-0.2,0-0.6,0.1-0.5,0.4
			s0.4,0.1,0.6,0c0.1,0,0.4-0.2,0.5-0.2c0,0,0,0,0.1,0c0.1,0,0.3,0,0.4,0.1c0.1,0.1,0.2,0.2,0.3,0.3C15.8,22.5,15.8,22.9,15.7,23.3z
			"/>
		<path d="M14.9,19.8L14.9,19.8L14.9,19.8z"/>
	</g>
	<path d="M13,23c-0.4,0-0.6-0.3-0.6-0.6c0-0.4,0.3-0.6,0.6-0.6s0.6,0.3,0.6,0.6C13.6,22.7,13.4,23,13,23z"/>
	<g>
		<path d="M8.2,7.9L8.2,7.9C8.1,7.8,7.9,7.7,7.8,7.6c0,0-0.1-0.2-0.3-0.3l0,0L8,6.1C8,6,8,5.9,8,5.9c0-0.1,0-0.2-0.1-0.2
			C7.9,5.6,7.8,5.5,7.6,5.5c0,0-1.4,0-1.4,0C6.2,5.5,6,5.3,6,5.2C5.9,4.9,5.7,4.8,5.4,4.8c-0.3,0-0.5,0.1-0.6,0.4
			c0,0.1-0.2,0.3-0.2,0.3c0,0-1.5,0-1.5,0c-0.1,0-0.2,0-0.3,0.1c0,0.1-0.1,0.1-0.1,0.2c0,0.1,0,0.2,0,0.2c0,0,0.4,1.1,0.5,1.2l0,0
			C3.1,7.4,3,7.6,3,7.6C2.9,7.7,2.7,7.8,2.6,7.9C2.2,8.2,2,8.5,2,8.8v0c0,0.3,0.2,0.6,0.3,0.8l0.1,0.1c0.1,0.1,0.3,0.7,0.5,0.9
			c0.1,0.2,0.8,0.8,1,0.9c0.2,0.1,0.5,0.1,0.6,0.2l0.1,0c0.1,0,0.6,0.2,0.8,0.2c0.2,0,0.7-0.2,0.8-0.2l0.1,0c0.1,0,0.4-0.1,0.6-0.2
			c0.2-0.1,0.9-0.8,1-0.9c0.1-0.2,0.4-0.7,0.5-0.9l0.1-0.1c0.1-0.2,0.3-0.5,0.3-0.8v0C8.8,8.5,8.6,8.2,8.2,7.9z M6.9,8.2
			c0,0.1,1,1.4,1.1,1.5c0,0-0.1,0.3-0.2,0.4c-0.1,0.1-0.2,0.2-0.2,0.3c-0.1-0.1-1-1.7-1.1-1.6l0,0v0c0,0.1,0.3,0.7,0.8,1.8
			c0,0,0,0,0,0c0,0-0.3,0.3-0.4,0.4c-0.1,0.1-0.2,0.1-0.3,0.1c0-0.1-0.6-2-0.7-2l0,0h0c0,0,0,0,0,0.1c0,0.4,0.2,1.9,0.2,2
			c0,0-0.1,0-0.1,0l-0.2,0l-0.1,0c-0.1,0-0.2,0.1-0.2,0.1c-0.1,0-0.2,0-0.2-0.1l-0.1,0l-0.2,0c0,0-0.1,0-0.1,0c0-0.1,0.2-1.6,0.2-2
			c0-0.1,0-0.1,0-0.1l0,0h0c-0.1,0-0.6,1.9-0.7,2c-0.1,0-0.2-0.1-0.3-0.1c-0.1-0.1-0.4-0.4-0.5-0.4c0,0,0-0.1,0-0.1
			C3.9,9.9,4.4,9,4.4,8.8v0l0,0c-0.1-0.1-1.1,1.5-1.1,1.6c0,0-0.2-0.1-0.2-0.3C2.9,10,2.8,9.7,2.8,9.7c0.1-0.1,1.1-1.3,1.1-1.5v0
			c0,0,0,0,0,0c-0.1,0-1.2,1-1.3,1.1c0,0-0.1-0.1-0.1-0.1L2.5,9.1c0-0.1,0-0.1,0-0.2V8.8c0-0.2,0.2-0.4,0.5-0.6C3,8.1,3.2,8,3.3,7.9
			l0.1-0.1c0.2-0.2,1.6-2,1.8-2.5c0.1-0.1,0.2-0.1,0.2-0.1s0.2,0,0.2,0.1c0.3,0.5,1.6,2.3,1.8,2.5l0.1,0.1C7.6,8,7.7,8.1,7.9,8.2
			C8,8.3,8.3,8.5,8.4,8.8v0.1c0,0.1,0,0.2,0,0.2L8.2,9.2c0,0-0.1,0.1-0.1,0.1C8.1,9.3,7,8.2,6.9,8.2L6.9,8.2
			C6.9,8.2,6.9,8.2,6.9,8.2z M6.4,5.9c0,0,1.1,0,1.1,0h0c0.1,0,0.1,0,0.1,0l0,0.1c0,0.1,0,0.1,0,0.1S7.3,6.9,7.2,7
			C7.2,7,6.4,6,6.4,5.9z M4.4,5.9c0,0-0.8,1.1-0.9,1.2c0,0-0.4-1-0.4-1c0,0,0-0.1,0-0.1l0-0.1c0,0,0,0,0.1,0
			C3.3,5.9,4.4,5.9,4.4,5.9z"/>
		<path d="M15.8,7.8L15.8,7.8c-0.1-0.1-0.3-0.2-0.4-0.3c0,0-0.1-0.2-0.3-0.3l0,0L15.6,6c0-0.1,0.1-0.2,0.1-0.2s0-0.2-0.1-0.2
			c-0.1-0.1-0.2-0.1-0.3-0.1c0,0-1.4,0-1.4,0c0-0.1-0.1-0.2-0.2-0.3c-0.1-0.3-0.3-0.4-0.6-0.4c-0.3,0-0.5,0.1-0.6,0.4
			c0,0.1-0.2,0.3-0.2,0.3c0,0-1.4,0-1.4,0c-0.1,0-0.2,0.1-0.3,0.1c0,0.1-0.1,0.1-0.1,0.2c0,0.1,0,0.2,0.1,0.2c0,0,0.4,1.1,0.4,1.2
			l0,0c-0.1,0.2-0.2,0.3-0.3,0.3c-0.1,0.1-0.3,0.2-0.4,0.3C9.8,8.1,9.6,8.4,9.6,8.7v0c0,0.3,0.2,0.6,0.3,0.8L10,9.6
			c0.1,0.1,0.3,0.7,0.5,0.9c0.1,0.2,0.8,0.8,1.1,0.9c0.2,0.1,0.5,0.1,0.6,0.2l0.1,0c0.1,0,0.6,0.2,0.8,0.2c0.2,0,0.7-0.2,0.8-0.2
			l0.1,0c0.1,0,0.4-0.1,0.6-0.2c0.2-0.1,0.9-0.8,1.1-0.9c0.1-0.2,0.4-0.7,0.5-0.9l0.1-0.1c0.1-0.2,0.3-0.5,0.3-0.8v0
			C16.4,8.4,16.2,8.1,15.8,7.8z M14.5,8.1c0,0.1,1,1.4,1.1,1.5c0,0-0.1,0.3-0.2,0.4c-0.1,0.1-0.2,0.2-0.2,0.3
			c-0.1-0.1-1-1.7-1.1-1.6l0,0v0c0,0.1,0.3,0.7,0.8,1.8c0,0,0,0,0,0c-0.1,0-0.3,0.3-0.4,0.4c-0.1,0.1-0.2,0.1-0.4,0.1
			c0-0.1-0.6-2-0.6-2l0,0l0,0c0,0,0,0,0,0.1c0,0.4,0.2,1.9,0.2,2c0,0-0.1,0-0.1,0l-0.2,0l-0.1,0c-0.1,0-0.1,0.1-0.2,0.1
			c-0.1,0-0.1,0-0.2-0.1l-0.1,0l-0.2,0c0,0-0.1,0-0.1,0c0-0.1,0.2-1.6,0.2-2c0-0.1,0-0.1,0-0.1l0,0h0c-0.1,0-0.6,1.9-0.6,2
			c-0.1,0-0.2-0.1-0.4-0.1c-0.1-0.1-0.4-0.3-0.4-0.4c0,0,0-0.1,0-0.1C11.5,9.8,12,8.9,12,8.8v0l0,0c-0.1-0.1-1.1,1.5-1.1,1.6
			c0,0-0.2-0.1-0.2-0.3c-0.1-0.2-0.2-0.4-0.2-0.5c0.1-0.1,1.1-1.3,1.1-1.5v0c0,0,0,0,0,0c-0.1,0-1.2,1-1.3,1.1c0,0-0.1-0.1-0.1-0.1
			L10.1,9c0-0.1,0-0.1,0-0.2V8.7c0-0.2,0.2-0.4,0.5-0.6c0.1-0.1,0.3-0.2,0.3-0.3l0.1-0.1c0.2-0.2,1.6-2,1.8-2.5
			c0.1-0.1,0.2-0.1,0.2-0.1s0.2,0,0.2,0.1c0.3,0.5,1.6,2.3,1.8,2.5l0.1,0.1c0.1,0.1,0.2,0.2,0.3,0.3c0.2,0.1,0.5,0.4,0.5,0.6v0.1
			c0,0.1,0,0.2,0,0.2l-0.1,0.2c0,0,0,0.1-0.1,0.1C15.7,9.1,14.6,8.1,14.5,8.1L14.5,8.1C14.5,8.1,14.5,8.1,14.5,8.1z M14,5.8
			c0,0,1.1,0,1.1,0h0c0.1,0,0.1,0,0.1,0l0,0.1l0,0.1c0,0-0.3,0.9-0.4,1C14.8,6.9,14.1,5.9,14,5.8z M12,5.8c0,0-0.8,1.1-0.9,1.2
			c0,0-0.4-1-0.4-1c0,0,0-0.1,0-0.1l0-0.1c0,0,0,0,0.1,0C10.9,5.8,12,5.8,12,5.8z"/>
		<path d="M23.4,7.9L23.4,7.9C23.3,7.8,23,7.7,23,7.6c0,0-0.1-0.2-0.3-0.3l0,0c0,0,0.5-1.2,0.5-1.2c0-0.1,0-0.2,0-0.2s0-0.2-0.1-0.2
			c-0.1-0.1-0.2-0.1-0.3-0.1c0,0-1.4,0-1.5,0c0-0.1-0.1-0.2-0.2-0.3c-0.1-0.3-0.3-0.4-0.6-0.4c-0.3,0-0.5,0.1-0.6,0.4
			c0,0.1-0.2,0.3-0.2,0.3c0,0-1.5,0-1.5,0c-0.1,0-0.2,0.1-0.3,0.1C18,5.7,18,5.8,18,5.9c0,0.1,0,0.2,0,0.2c0,0,0.4,1.1,0.5,1.2l0,0
			c-0.1,0.2-0.2,0.3-0.3,0.3c-0.1,0.1-0.3,0.2-0.4,0.3c-0.4,0.2-0.6,0.6-0.6,0.9v0c0,0.3,0.2,0.6,0.3,0.8l0.1,0.1
			c0.1,0.1,0.3,0.7,0.5,0.9c0.1,0.2,0.8,0.8,1,0.9c0.2,0.1,0.5,0.1,0.6,0.2l0.1,0c0.1,0,0.6,0.2,0.8,0.2c0.2,0,0.7-0.2,0.8-0.2
			l0.1,0c0.1,0,0.4-0.1,0.6-0.2c0.2-0.1,0.9-0.8,1-0.9c0.1-0.2,0.4-0.7,0.5-0.9l0.1-0.1C23.8,9.4,24,9.1,24,8.8v0
			C24,8.5,23.8,8.2,23.4,7.9z M22.1,8.2c0,0.1,1,1.4,1.1,1.5c0,0-0.1,0.3-0.2,0.4c-0.1,0.1-0.2,0.2-0.2,0.3c-0.1-0.1-1-1.7-1.1-1.6
			l0,0v0c0,0.1,0.3,0.7,0.8,1.8c0,0,0,0,0,0c-0.1,0-0.3,0.3-0.5,0.4c-0.1,0.1-0.2,0.1-0.4,0.1c0-0.1-0.5-2-0.6-2l0,0l0,0
			c0,0,0,0,0,0.1c0,0.4,0.2,1.9,0.2,2c0,0-0.1,0-0.1,0l-0.2,0l-0.1,0c-0.1,0-0.1,0.1-0.2,0.1c-0.1,0-0.1,0-0.2-0.1l-0.1,0l-0.2,0
			c0,0-0.1,0-0.1,0c0-0.1,0.2-1.6,0.2-2c0-0.1,0-0.1,0-0.1l0,0h0c-0.1,0-0.6,1.9-0.6,2c-0.1,0-0.2-0.1-0.4-0.1s-0.4-0.3-0.5-0.4
			c0,0,0-0.1,0-0.1c0.4-0.7,0.8-1.6,0.8-1.8v0l0,0c-0.1-0.1-1.1,1.5-1.1,1.6c0,0-0.2-0.1-0.2-0.3C18.1,10,18,9.7,18,9.7
			c0.1-0.1,1.1-1.3,1.1-1.5v0c0,0,0,0,0,0c-0.1,0-1.2,1-1.3,1.1c0,0-0.1-0.1-0.1-0.1l-0.1-0.2c0-0.1,0-0.1,0-0.2V8.8
			c0-0.2,0.2-0.4,0.5-0.6c0.1-0.1,0.3-0.2,0.3-0.3l0.1-0.1c0.2-0.2,1.6-2,1.8-2.5c0.1-0.1,0.2-0.1,0.2-0.1s0.2,0,0.2,0.1
			c0.3,0.5,1.6,2.3,1.8,2.5l0.1,0.1C22.8,8,23,8.1,23.1,8.2c0.2,0.1,0.5,0.4,0.5,0.6v0.1c0,0.1,0,0.2,0,0.2l-0.1,0.2
			c0,0,0,0.1,0,0.1C23.3,9.2,22.3,8.2,22.1,8.2L22.1,8.2C22.1,8.2,22.1,8.2,22.1,8.2z M21.6,5.9c0,0,1.1,0,1.1,0h0
			c0.1,0,0.1,0,0.1,0l0,0.1l0,0.1c0,0-0.3,0.9-0.4,1C22.4,7,21.6,6,21.6,5.9z M19.6,5.9c0,0-0.8,1.1-0.9,1.2c0,0-0.4-1-0.4-1
			c0,0,0-0.1,0-0.1l0-0.1c0,0,0,0,0.1,0C18.5,5.9,19.6,5.9,19.6,5.9z"/>
	</g>
</g>
</svg>
